# xmcd
#
# Track frame offsets:
#	150
#	15670
#	29575
#	46572
#	63097
#	73977
#	88190
#	101710
#	117745
#	128240
#	142335
#	161750
#	174390
#	198870
#	213562
#
# Disc length: 3186 seconds
#
# Revision: 1
# Processed by: cddbd v1.4PL0 Copyright (c) Steve Scherf et al.
# Submitted via: audiograbber 1.81.02
#
DISCID=e10c700f
DTITLE=Arnie Skiffle Joe - Greates Hits
DYEAR=1987
DGENRE=National Folk
TTITLE0=Pepito
TTITLE1=Mexico-Joe
TTITLE2=In the forests of Alaska
TTITLE3=Louisianna Susanna
TTITLE4=Rosalee Tootsie Woo
TTITLE5=Trailersjåfør
TTITLE6=Drømmen om Cuba
TTITLE7=Hasta la Vista Elvis Presley
TTITLE8=Misjonæren i Gryta
TTITLE9=Annie Annie
TTITLE10=Sydhavets Rose
TTITLE11=Gone is my Valley
TTITLE12=Den siste farvellen
TTITLE13=Amanda og trollmannen
TTITLE14=Sigøynerblod
EXTD=
EXTT0=
EXTT1=
EXTT2=
EXTT3=
EXTT4=
EXTT5=
EXTT6=
EXTT7=
EXTT8=
EXTT9=
EXTT10=
EXTT11=
EXTT12=
EXTT13=
EXTT14=
PLAYORDER=
